<svg xmlns="http://www.w3.org/2000/svg" xmlns:xlink="http://www.w3.org/1999/xlink" id="Calque_1" x="0px" y="0px" viewBox="-570.2 -230.4 2553.5 546.3" style="enable-background:new -570.2 -230.4 2553.5 546.3;" xml:space="preserve"><style type="text/css">	.st0{fill:#17488A;}	.st1{fill:#FFFFFF;}</style><g>	<path d="M38.4,236.8v-388.2h38.9h39.2v388.2H77.6H38.4z"></path>	<path d="M258.7,236.8h-36.3h-36.6v-388.2h57.1h57.4l68.2,307.7l67.3-307.7h56.5h56.5v388.2h-36.3h-36.6V-89.4l-70.2,326.3h-38.3  H329L258.7-96.7V236.8z"></path>	<path d="M623.9,236.8v-388.2h38.9H784c51.5,0,90.6,15.7,117.3,47c26.7,31.4,40.1,77.2,40.1,137.5c0,66.6-13.9,117.1-41.7,151.7  c-27.8,34.6-68.5,51.9-122.2,51.9H662.8H623.9z M702,170.1h65.8c31.8,0,55.6-11.1,71.5-33.4c15.9-22.3,23.8-55.6,23.8-100.1  c0-40.5-7.4-70.8-22.2-90.9s-37.1-30.2-66.7-30.2H702V170.1z"></path>	<path d="M1081.2,236.8V-82.4H968v-34.3v-34.6h304.3v34.3v34.6h-112.9v319.3h-39.2H1081.2z"></path>	<path d="M1318.8,236.8v-388.2h275.3v34.3v34.6H1397V0.1h182.9v33.1v33.7H1397v101.1h206v34.3v34.6H1318.8z"></path>	<path d="M1983.3,100.9c-4.7,44.9-21.6,80.6-50.8,107c-29.2,26.4-66.2,39.6-111,39.6c-52.7,0-94.5-18.2-125.5-54.6  c-31-36.4-46.5-85.7-46.5-147.8c0-63.5,15.5-113.9,46.5-151.1c31-37.2,72.9-55.8,125.5-55.8c44.3,0,81.1,12.5,110.3,37.5  c29.3,25,46.4,58.7,51.5,101.2h-78.4c-2.5-20.8-11.2-37.4-26-49.8c-14.8-12.3-33.7-18.5-56.8-18.5c-29.1,0-51.8,12-68.2,36  s-24.6,57.3-24.6,100c0,41.5,8.2,74,24.6,97.4c16.4,23.5,39.1,35.2,68.2,35.2c23,0,41.9-6.8,56.8-20.5c14.8-13.7,23.5-32.2,26-55.7  H1983.3z"></path></g><path class="st0" d="M-570.2-191.3c0-21.6,18-39.1,40.1-39.1h462.6c22.2,0,40.1,17.5,40.1,39.1v468c0,21.6-18,39.1-40.1,39.1h-462.6 c-22.2,0-40.1-17.5-40.1-39.1L-570.2-191.3L-570.2-191.3z"></path><g>	<path class="st1" d="M-352.7-139.1L-534.5,42.8l181.9,181.9l181.9-181.9L-352.7-139.1z M-451.7,42.8l99.3-99.3l99.3,99.3  l-99.3,99.3L-451.7,42.8z"></path>	<path class="st1" d="M-124.5,42.8l-99.3,99.3l-99.3-99.3l99.3-99.3l-0.3-82.5L-405.9,42.8l181.9,181.9L-42.2,42.8H-124.5z"></path></g></svg>